<?xml version="1.0" encoding="UTF-8" standalone="no"?><!DOCTYPE svg PUBLIC "-//W3C//DTD SVG 1.1//EN" "http://www.w3.org/Graphics/SVG/1.1/DTD/svg11.dtd"><!-- Generated by graphviz version 2.40.1 (20161225.0304)
 --><!-- Title: G Pages: 1 --><svg xmlns="http://www.w3.org/2000/svg" xmlns:xlink="http://www.w3.org/1999/xlink" width="1330pt" height="2276pt" viewBox="0.00 0.00 1329.87 2275.63">
<g id="graph0" class="graph" transform="scale(1 1) rotate(0) translate(4 2271.6252)">
<title>G</title>
<polygon fill="#ffffff" stroke="transparent" points="-4,4 -4,-2271.6252 1325.8739,-2271.6252 1325.8739,4 -4,4"/>
<g id="clust1" class="cluster">
<title>cluster_lexer</title>
<polygon fill="none" stroke="#000000" points="706,-1856.4953 706,-2205.39 1052,-2205.39 1052,-1856.4953 706,-1856.4953"/>
<text text-anchor="middle" x="879" y="-2188.79" font-family="Times,serif" font-size="14.00" fill="#000000">LEXER</text>
</g>
<g id="clust2" class="cluster">
<title>cluster_parser</title>
<polygon fill="none" stroke="#000000" points="691,-1230.0656 691,-1820.8571 1067,-1820.8571 1067,-1230.0656 691,-1230.0656"/>
<text text-anchor="middle" x="879" y="-1804.2571" font-family="Times,serif" font-size="14.00" fill="#000000">PARSER</text>
<text text-anchor="middle" x="879" y="-1787.4571" font-family="Times,serif" font-size="14.00" fill="#000000">Iretates upon `procs` and `tokens`</text>
</g>
<g id="clust3" class="cluster">
<title>cluster_exec</title>
<polygon fill="none" stroke="#000000" points="8,-8 8,-1222.0656 1112,-1222.0656 1112,-8 8,-8"/>
<text text-anchor="middle" x="560" y="-1205.4656" font-family="Times,serif" font-size="14.00" fill="#000000">EXEC</text>
<text text-anchor="middle" x="560" y="-1188.6656" font-family="Times,serif" font-size="14.00" fill="#000000">Execute functions</text>
</g>
<g id="clust4" class="cluster">
<title>cluster_exec_child</title>
<polygon fill="none" stroke="#000000" points="372,-16 372,-773.6229 1104,-773.6229 1104,-16 372,-16"/>
<text text-anchor="middle" x="738" y="-757.0229" font-family="Times,serif" font-size="14.00" fill="#000000">EXEC_CHILD</text>
<text text-anchor="middle" x="738" y="-740.2229" font-family="Times,serif" font-size="14.00" fill="#000000">Execute functions</text>
</g>
<!-- l1 -->
<g id="node1" class="node">
<title>l1</title>
<ellipse fill="none" stroke="#000000" cx="879" cy="-2143.1744" rx="160.7715" ry="29.3315"/>
<text text-anchor="middle" x="879" y="-2147.3744" font-family="Times,serif" font-size="14.00" fill="#000000">GET_PROCS :</text>
<text text-anchor="middle" x="879" y="-2130.5744" font-family="Times,serif" font-size="14.00" fill="#000000">create `t_proc` array (nb of pipes + 1)</text>
</g>
<!-- l2 -->
<g id="node2" class="node">
<title>l2</title>
<ellipse fill="none" stroke="#000000" cx="879" cy="-1905.7904" rx="164.9671" ry="41.0911"/>
<text text-anchor="middle" x="879" y="-1918.3904" font-family="Times,serif" font-size="14.00" fill="#000000">GET_TOKENS : </text>
<text text-anchor="middle" x="879" y="-1901.5904" font-family="Times,serif" font-size="14.00" fill="#000000">Detect words thx to spaces and quotes </text>
<text text-anchor="middle" x="879" y="-1884.7904" font-family="Times,serif" font-size="14.00" fill="#000000"> Do not removes quotes</text>
</g>
<!-- l1&#45;&gt;l2 -->
<g id="edge1" class="edge">
<title>l1-&gt;l2</title>
<path fill="none" stroke="#000000" d="M879,-2113.5895C879,-2074.568 879,-2005.2655 879,-1957.4922"/>
<polygon fill="#000000" stroke="#000000" points="882.5001,-1957.3442 879,-1947.3442 875.5001,-1957.3443 882.5001,-1957.3442"/>
</g>
<!-- p1 -->
<g id="node3" class="node">
<title>p1</title>
<ellipse fill="none" stroke="#000000" cx="879" cy="-1741.8415" rx="175.9005" ry="29.3315"/>
<text text-anchor="middle" x="879" y="-1746.0415" font-family="Times,serif" font-size="14.00" fill="#000000">GET_TOKEN_TYPE : </text>
<text text-anchor="middle" x="879" y="-1729.2415" font-family="Times,serif" font-size="14.00" fill="#000000">Detect word, '&lt;', word following '&lt;'... &lt; </text>
</g>
<!-- l2&#45;&gt;p1 -->
<g id="edge2" class="edge">
<title>l2-&gt;p1</title>
<path fill="none" stroke="#000000" d="M879,-1864.4191C879,-1839.0203 879,-1806.664 879,-1781.5731"/>
<polygon fill="#000000" stroke="#000000" points="882.5001,-1781.3061 879,-1771.3061 875.5001,-1781.3061 882.5001,-1781.3061"/>
</g>
<!-- p2 -->
<g id="node4" class="node">
<title>p2</title>
<ellipse fill="none" stroke="#000000" cx="879" cy="-1623.2514" rx="180.2566" ry="53.3494"/>
<text text-anchor="middle" x="879" y="-1644.2514" font-family="Times,serif" font-size="14.00" fill="#000000">REMOVE_QUOTES_AND_EXPAND :</text>
<text text-anchor="middle" x="879" y="-1627.4514" font-family="Times,serif" font-size="14.00" fill="#000000">replace $text by value in env</text>
<text text-anchor="middle" x="879" y="-1610.6514" font-family="Times,serif" font-size="14.00" fill="#000000">remove quotes</text>
<text text-anchor="middle" x="879" y="-1593.8514" font-family="Times,serif" font-size="14.00" fill="#000000">set ignored tokens (expanded empty word)</text>
</g>
<!-- p1&#45;&gt;p2 -->
<g id="edge3" class="edge">
<title>p1-&gt;p2</title>
<path fill="none" stroke="#000000" d="M879,-1712.2221C879,-1704.3465 879,-1695.5299 879,-1686.5901"/>
<polygon fill="#000000" stroke="#000000" points="882.5001,-1686.488 879,-1676.488 875.5001,-1686.4881 882.5001,-1686.488"/>
</g>
<!-- p3 -->
<g id="node5" class="node">
<title>p3</title>
<ellipse fill="none" stroke="#000000" cx="879" cy="-1504.6614" rx="179.5717" ry="29.3315"/>
<text text-anchor="middle" x="879" y="-1508.8614" font-family="Times,serif" font-size="14.00" fill="#000000">GET_FUNCTION_TYPE : </text>
<text text-anchor="middle" x="879" y="-1492.0614" font-family="Times,serif" font-size="14.00" fill="#000000">detect function : 0 for execve, 1 for echo...</text>
</g>
<!-- p2&#45;&gt;p3 -->
<g id="edge4" class="edge">
<title>p2-&gt;p3</title>
<path fill="none" stroke="#000000" d="M879,-1569.8541C879,-1561.2087 879,-1552.3944 879,-1544.1562"/>
<polygon fill="#000000" stroke="#000000" points="882.5001,-1544.0852 879,-1534.0853 875.5001,-1544.0853 882.5001,-1544.0852"/>
</g>
<!-- p4 -->
<g id="node6" class="node">
<title>p4</title>
<ellipse fill="none" stroke="#000000" cx="879" cy="-1397.9507" rx="140.5636" ry="41.0911"/>
<text text-anchor="middle" x="879" y="-1410.5507" font-family="Times,serif" font-size="14.00" fill="#000000">GET_FDs :</text>
<text text-anchor="middle" x="879" y="-1393.7507" font-family="Times,serif" font-size="14.00" fill="#000000">Ooen + parse files names</text>
<text text-anchor="middle" x="879" y="-1376.9507" font-family="Times,serif" font-size="14.00" fill="#000000"> Open all files, set FDs in tokens</text>
</g>
<!-- p3&#45;&gt;p4 -->
<g id="edge5" class="edge">
<title>p3-&gt;p4</title>
<path fill="none" stroke="#000000" d="M879,-1475.2197C879,-1467.2385 879,-1458.3571 879,-1449.5401"/>
<polygon fill="#000000" stroke="#000000" points="882.5001,-1449.277 879,-1439.277 875.5001,-1449.277 882.5001,-1449.277"/>
</g>
<!-- p5 -->
<g id="node7" class="node">
<title>p5</title>
<ellipse fill="none" stroke="#000000" cx="879" cy="-1279.3606" rx="89.8691" ry="41.0911"/>
<text text-anchor="middle" x="879" y="-1291.9606" font-family="Times,serif" font-size="14.00" fill="#000000">GET_PATH : </text>
<text text-anchor="middle" x="879" y="-1275.1606" font-family="Times,serif" font-size="14.00" fill="#000000">detect function path</text>
<text text-anchor="middle" x="879" y="-1258.3606" font-family="Times,serif" font-size="14.00" fill="#000000"> only for 0 execve</text>
</g>
<!-- p4&#45;&gt;p5 -->
<g id="edge6" class="edge">
<title>p4-&gt;p5</title>
<path fill="none" stroke="#000000" d="M879,-1356.4736C879,-1348.3061 879,-1339.6414 879,-1331.1828"/>
<polygon fill="#000000" stroke="#000000" points="882.5001,-1331.0147 879,-1321.0147 875.5001,-1331.0147 882.5001,-1331.0147"/>
</g>
<!-- x -->
<g id="node8" class="node">
<title>x</title>
<ellipse fill="none" stroke="#000000" cx="879" cy="-1143.0499" rx="182.1294" ry="29.3315"/>
<text text-anchor="middle" x="879" y="-1147.2499" font-family="Times,serif" font-size="14.00" fill="#000000">EXEC_CHILDS : </text>
<text text-anchor="middle" x="879" y="-1130.4499" font-family="Times,serif" font-size="14.00" fill="#000000">If only one builtin, execute builtin in father</text>
</g>
<!-- p5&#45;&gt;x -->
<g id="edge7" class="edge">
<title>p5-&gt;x</title>
<path fill="none" stroke="#000000" d="M879,-1237.7222C879,-1220.3459 879,-1200.2451 879,-1183.0469"/>
<polygon fill="#000000" stroke="#000000" points="882.5001,-1182.7639 879,-1172.7639 875.5001,-1182.7639 882.5001,-1182.7639"/>
</g>
<!-- x0 -->
<g id="node9" class="node">
<title>x0</title>
<ellipse fill="none" stroke="#000000" cx="837" cy="-1048.2186" rx="187.5922" ry="29.3315"/>
<text text-anchor="middle" x="837" y="-1052.4186" font-family="Times,serif" font-size="14.00" fill="#000000">DO_PIPES : </text>
<text text-anchor="middle" x="837" y="-1035.6186" font-family="Times,serif" font-size="14.00" fill="#000000">Create table of pipes and set it in proc data   </text>
</g>
<!-- x&#45;&gt;x0 -->
<g id="edge8" class="edge">
<title>x-&gt;x0</title>
<path fill="none" stroke="#000000" d="M865.9412,-1113.5645C862.2275,-1105.1795 858.1253,-1095.9172 854.2055,-1087.0667"/>
<polygon fill="#000000" stroke="#000000" points="857.3005,-1085.4118 850.0508,-1077.6858 850.9002,-1088.2465 857.3005,-1085.4118"/>
</g>
<!-- c51 -->
<g id="node16" class="node">
<title>c51</title>
<ellipse fill="none" stroke="#000000" cx="1034" cy="-350.7164" rx="62.3393" ry="41.0911"/>
<text text-anchor="middle" x="1034" y="-363.3164" font-family="Times,serif" font-size="14.00" fill="#000000">BUILD_IN :</text>
<text text-anchor="middle" x="1034" y="-346.5164" font-family="Times,serif" font-size="14.00" fill="#000000">Any build in</text>
<text text-anchor="middle" x="1034" y="-329.7164" font-family="Times,serif" font-size="14.00" fill="#000000">  </text>
</g>
<!-- x&#45;&gt;c51 -->
<g id="edge9" class="edge">
<title>x-&gt;c51</title>
<path fill="none" stroke="#000000" d="M973.2441,-1117.7393C995.4367,-1108.137 1017.4259,-1095.1256 1034,-1077.6343 1078.2273,-1030.9594 1083,-1005.8088 1083,-941.508 1083,-941.508 1083,-941.508 1083,-576.0171 1083,-514.6706 1065.4392,-446.0303 1051.3432,-400.8147"/>
<polygon fill="#000000" stroke="#000000" points="1054.6687,-399.7225 1048.3046,-391.2521 1047.9974,-401.8425 1054.6687,-399.7225"/>
</g>
<!-- x1 -->
<g id="node10" class="node">
<title>x1</title>
<ellipse fill="none" stroke="#000000" cx="760" cy="-941.508" rx="177.2496" ry="41.0911"/>
<text text-anchor="middle" x="760" y="-954.108" font-family="Times,serif" font-size="14.00" fill="#000000">DO_REDIRS : </text>
<text text-anchor="middle" x="760" y="-937.308" font-family="Times,serif" font-size="14.00" fill="#000000">Set stream in/out to pipes or to openes fds</text>
<text text-anchor="middle" x="760" y="-920.508" font-family="Times,serif" font-size="14.00" fill="#000000"> Closes useless fds</text>
</g>
<!-- x0&#45;&gt;x1 -->
<g id="edge10" class="edge">
<title>x0-&gt;x1</title>
<path fill="none" stroke="#000000" d="M815.7556,-1018.777C809.4894,-1010.093 802.4544,-1000.3435 795.5468,-990.7707"/>
<polygon fill="#000000" stroke="#000000" points="798.2217,-988.4962 789.5319,-982.4349 792.5452,-992.5922 798.2217,-988.4962"/>
</g>
<!-- x2 -->
<g id="node11" class="node">
<title>x2</title>
<ellipse fill="none" stroke="#000000" cx="722" cy="-822.9179" rx="159.4167" ry="41.0911"/>
<text text-anchor="middle" x="722" y="-835.5179" font-family="Times,serif" font-size="14.00" fill="#000000">DO_FORK : </text>
<text text-anchor="middle" x="722" y="-818.7179" font-family="Times,serif" font-size="14.00" fill="#000000">create childs</text>
<text text-anchor="middle" x="722" y="-801.9179" font-family="Times,serif" font-size="14.00" fill="#000000">closes useless fds in childs and father</text>
</g>
<!-- x1&#45;&gt;x2 -->
<g id="edge11" class="edge">
<title>x1-&gt;x2</title>
<path fill="none" stroke="#000000" d="M746.7094,-900.0309C744.0037,-891.5868 741.1276,-882.6113 738.3304,-873.8815"/>
<polygon fill="#000000" stroke="#000000" points="741.6035,-872.6263 735.2189,-864.1713 734.9374,-874.7624 741.6035,-872.6263"/>
</g>
<!-- x3 -->
<g id="node12" class="node">
<title>x3</title>
<ellipse fill="none" stroke="#000000" cx="190" cy="-137.295" rx="174.207" ry="41.0911"/>
<text text-anchor="middle" x="190" y="-149.895" font-family="Times,serif" font-size="14.00" fill="#000000">DO_WAIT : </text>
<text text-anchor="middle" x="190" y="-133.095" font-family="Times,serif" font-size="14.00" fill="#000000">Waits childs</text>
<text text-anchor="middle" x="190" y="-116.295" font-family="Times,serif" font-size="14.00" fill="#000000">Set exit global to exit val of the last child</text>
</g>
<!-- x2&#45;&gt;x3 -->
<g id="edge12" class="edge">
<title>x2-&gt;x3</title>
<path fill="none" stroke="#000000" d="M565.2059,-815.6232C485.7284,-809.104 399.4805,-796.8002 368,-773.6229 289.8349,-716.0742 275,-673.0822 275,-576.0171 275,-576.0171 275,-576.0171 275,-350.7164 275,-291.4518 246.361,-229.0803 222.3304,-187.1768"/>
<polygon fill="#000000" stroke="#000000" points="225.2016,-185.1535 217.1282,-178.2926 219.161,-188.6906 225.2016,-185.1535"/>
</g>
<!-- c0 -->
<g id="node13" class="node">
<title>c0</title>
<ellipse fill="none" stroke="#000000" cx="722" cy="-694.6072" rx="191.7907" ry="29.3315"/>
<text text-anchor="middle" x="722" y="-698.8072" font-family="Times,serif" font-size="14.00" fill="#000000">SAVE_STREAM_STATUS </text>
<text text-anchor="middle" x="722" y="-682.0072" font-family="Times,serif" font-size="14.00" fill="#000000"> Saves streams before redirect, to reset it later</text>
</g>
<!-- x2&#45;&gt;c0 -->
<g id="edge13" class="edge">
<title>x2-&gt;c0</title>
<path fill="none" stroke="#000000" d="M722,-781.6133C722,-766.3752 722,-749.1586 722,-734.086"/>
<polygon fill="#000000" stroke="#000000" points="725.5001,-734.0442 722,-724.0443 718.5001,-734.0443 725.5001,-734.0442"/>
</g>
<!-- c7 -->
<g id="node20" class="node">
<title>c7</title>
<ellipse fill="none" stroke="#000000" cx="561" cy="-42" rx="75.3176" ry="18"/>
<text text-anchor="middle" x="561" y="-37.8" font-family="Times,serif" font-size="14.00" fill="#000000">FREE_PROCS :</text>
</g>
<!-- x3&#45;&gt;c7 -->
<g id="edge22" class="edge">
<title>x3-&gt;c7</title>
<path fill="none" stroke="#000000" d="M308.4068,-106.8811C372.1579,-90.506 448.1277,-70.9924 499.9892,-57.6712"/>
<polygon fill="#000000" stroke="#000000" points="500.8915,-61.0532 509.7063,-55.1753 499.1499,-54.2733 500.8915,-61.0532"/>
</g>
<!-- c2 -->
<g id="node14" class="node">
<title>c2</title>
<ellipse fill="none" stroke="#000000" cx="722" cy="-576.0171" rx="341.9862" ry="53.3494"/>
<text text-anchor="middle" x="722" y="-597.0171" font-family="Times,serif" font-size="14.00" fill="#000000">REDIRECT_IO : </text>
<text text-anchor="middle" x="722" y="-580.2171" font-family="Times,serif" font-size="14.00" fill="#000000">Maybe there is redirect ? Redirects IO based on Imput and Output (for Childs only)</text>
<text text-anchor="middle" x="722" y="-563.4171" font-family="Times,serif" font-size="14.00" fill="#000000">Close useless fd</text>
<text text-anchor="middle" x="722" y="-546.6171" font-family="Times,serif" font-size="14.00" fill="#000000">(Dup2)</text>
</g>
<!-- c0&#45;&gt;c2 -->
<g id="edge14" class="edge">
<title>c0-&gt;c2</title>
<path fill="none" stroke="#000000" d="M722,-664.9878C722,-657.1122 722,-648.2956 722,-639.3558"/>
<polygon fill="#000000" stroke="#000000" points="725.5001,-639.2537 722,-629.2537 718.5001,-639.2538 725.5001,-639.2537"/>
</g>
<!-- c3 -->
<g id="node15" class="node">
<title>c3</title>
<ellipse fill="none" stroke="#000000" cx="722" cy="-457.4271" rx="249.8238" ry="29.3315"/>
<text text-anchor="middle" x="722" y="-461.6271" font-family="Times,serif" font-size="14.00" fill="#000000">EXEC_PROC :</text>
<text text-anchor="middle" x="722" y="-444.8271" font-family="Times,serif" font-size="14.00" fill="#000000">Based of ftype, launches BUILD_IN or EXEC_PROGRAM</text>
</g>
<!-- c2&#45;&gt;c3 -->
<g id="edge15" class="edge">
<title>c2-&gt;c3</title>
<path fill="none" stroke="#000000" d="M722,-522.6198C722,-513.9744 722,-505.1601 722,-496.9219"/>
<polygon fill="#000000" stroke="#000000" points="725.5001,-496.8509 722,-486.851 718.5001,-496.851 725.5001,-496.8509"/>
</g>
<!-- c3&#45;&gt;c51 -->
<g id="edge16" class="edge">
<title>c3-&gt;c51</title>
<path fill="none" stroke="#000000" d="M841.7457,-431.5193C881.1089,-421.2744 924.5996,-408.0626 963,-392.0114 968.4785,-389.7215 974.0532,-387.0839 979.548,-384.2724"/>
<polygon fill="#000000" stroke="#000000" points="981.5056,-387.1954 988.6886,-379.4072 978.2166,-381.0161 981.5056,-387.1954"/>
</g>
<!-- c52 -->
<g id="node17" class="node">
<title>c52</title>
<ellipse fill="none" stroke="#000000" cx="667" cy="-350.7164" rx="286.9553" ry="29.3315"/>
<text text-anchor="middle" x="667" y="-354.9164" font-family="Times,serif" font-size="14.00" fill="#000000">EXEC_PROGRAM : </text>
<text text-anchor="middle" x="667" y="-338.1164" font-family="Times,serif" font-size="14.00" fill="#000000">Sets the args according to execve requirements and launches(Execve)</text>
</g>
<!-- c3&#45;&gt;c52 -->
<g id="edge18" class="edge">
<title>c3-&gt;c52</title>
<path fill="none" stroke="#000000" d="M706.8254,-427.9854C700.6848,-416.0714 693.5103,-402.1516 686.9556,-389.4342"/>
<polygon fill="#000000" stroke="#000000" points="690.0085,-387.7177 682.316,-380.4324 683.7864,-390.9247 690.0085,-387.7177"/>
</g>
<!-- c6 -->
<g id="node18" class="node">
<title>c6</title>
<ellipse fill="none" stroke="#000000" cx="667" cy="-244.0057" rx="262.6684" ry="29.3315"/>
<text text-anchor="middle" x="667" y="-248.2057" font-family="Times,serif" font-size="14.00" fill="#000000">RESTORE_STREAM_STATUS </text>
<text text-anchor="middle" x="667" y="-231.4057" font-family="Times,serif" font-size="14.00" fill="#000000"> Restore streams (Useful for father, but done anyway on childs)</text>
</g>
<!-- c51&#45;&gt;c6 -->
<g id="edge17" class="edge">
<title>c51-&gt;c6</title>
<path fill="none" stroke="#000000" d="M989.2122,-321.8956C980.7329,-317.2459 971.7672,-312.8435 963,-309.4214 920.4974,-292.831 872.8359,-279.9752 828.3838,-270.2272"/>
<polygon fill="#000000" stroke="#000000" points="828.8694,-266.7517 818.3567,-268.0686 827.3961,-273.5949 828.8694,-266.7517"/>
</g>
<!-- c52&#45;&gt;c6 -->
<g id="edge19" class="edge">
<title>c52-&gt;c6</title>
<path fill="none" stroke="#000000" d="M667,-321.2748C667,-309.7077 667,-296.25 667,-283.8377"/>
<polygon fill="#000000" stroke="#000000" points="670.5001,-283.7217 667,-273.7217 663.5001,-283.7218 670.5001,-283.7217"/>
</g>
<!-- c61 -->
<g id="node19" class="node">
<title>c61</title>
<ellipse fill="none" stroke="#000000" cx="614" cy="-137.295" rx="64.3249" ry="18"/>
<text text-anchor="middle" x="614" y="-133.095" font-family="Times,serif" font-size="14.00" fill="#000000">FREE_ENV :</text>
</g>
<!-- c6&#45;&gt;c61 -->
<g id="edge20" class="edge">
<title>c6-&gt;c61</title>
<path fill="none" stroke="#000000" d="M652.3772,-214.5641C644.5621,-198.829 635.0093,-179.5954 627.3897,-164.2539"/>
<polygon fill="#000000" stroke="#000000" points="630.511,-162.67 622.928,-155.2707 624.2416,-165.7838 630.511,-162.67"/>
</g>
<!-- c61&#45;&gt;c7 -->
<g id="edge21" class="edge">
<title>c61-&gt;c7</title>
<path fill="none" stroke="#000000" d="M604.0311,-119.3708C596.1101,-105.1287 584.9083,-84.9876 575.9194,-68.8255"/>
<polygon fill="#000000" stroke="#000000" points="578.8435,-66.882 570.9242,-59.8439 572.726,-70.2844 578.8435,-66.882"/>
</g>
<!-- process_data -->
<g id="node21" class="node">
<title>process_data</title>
<ellipse fill="none" stroke="#000000" cx="1191" cy="-2143.1744" rx="130.7479" ry="124.4016"/>
<text text-anchor="middle" x="1191" y="-2214.5744" font-family="Times,serif" font-size="14.00" fill="#000000">PROCESS_DATA</text>
<text text-anchor="middle" x="1191" y="-2197.7744" font-family="Times,serif" font-size="14.00" fill="#000000">	string</text>
<text text-anchor="middle" x="1191" y="-2180.9744" font-family="Times,serif" font-size="14.00" fill="#000000">	tab of tokens</text>
<text text-anchor="middle" x="1191" y="-2164.1744" font-family="Times,serif" font-size="14.00" fill="#000000">	path (as requested by execve)</text>
<text text-anchor="middle" x="1191" y="-2147.3744" font-family="Times,serif" font-size="14.00" fill="#000000">	func_type</text>
<text text-anchor="middle" x="1191" y="-2130.5744" font-family="Times,serif" font-size="14.00" fill="#000000">	fd_in</text>
<text text-anchor="middle" x="1191" y="-2113.7744" font-family="Times,serif" font-size="14.00" fill="#000000">	fd_out</text>
<text text-anchor="middle" x="1191" y="-2096.9744" font-family="Times,serif" font-size="14.00" fill="#000000">	stream_in</text>
<text text-anchor="middle" x="1191" y="-2080.1744" font-family="Times,serif" font-size="14.00" fill="#000000">	stream_out</text>
<text text-anchor="middle" x="1191" y="-2063.3744" font-family="Times,serif" font-size="14.00" fill="#000000">	is_last</text>
</g>
<!-- tokens -->
<g id="node22" class="node">
<title>tokens</title>
<ellipse fill="none" stroke="#000000" cx="1191" cy="-1905.7904" rx="121.0609" ry="76.8665"/>
<text text-anchor="middle" x="1191" y="-1943.5904" font-family="Times,serif" font-size="14.00" fill="#000000">TOKENS</text>
<text text-anchor="start" x="1113.2419" y="-1926.7904" font-family="Times,serif" font-size="14.00" fill="#000000">	Null terminated pointer tab</text>
<text text-anchor="start" x="1113.2419" y="-1909.9904" font-family="Times,serif" font-size="14.00" fill="#000000">	char    *word</text>
<text text-anchor="start" x="1113.2419" y="-1893.1904" font-family="Times,serif" font-size="14.00" fill="#000000">	int     *is_expanded</text>
<text text-anchor="middle" x="1191" y="-1876.3904" font-family="Times,serif" font-size="14.00" fill="#000000">	</text>
<text text-anchor="middle" x="1191" y="-1859.5904" font-family="Times,serif" font-size="14.00" fill="#000000">	</text>
</g>
<!-- process_data&#45;&gt;tokens -->
<g id="edge23" class="edge">
<title>process_data-&gt;tokens</title>
<path fill="none" stroke="#000000" d="M1191,-2018.5731C1191,-2009.8988 1191,-2001.2667 1191,-1992.8627"/>
<polygon fill="#000000" stroke="#000000" points="1194.5001,-1992.7372 1191,-1982.7373 1187.5001,-1992.7373 1194.5001,-1992.7372"/>
</g>
</g>
</svg>